<svg width="32" height="49" viewBox="0 0 32 49" fill="none" xmlns="http://www.w3.org/2000/svg">
<path d="M27.4185 41.4203C34.867 31.0694 24.7199 12.4454 15.695 3M27.4185 41.4203H20M27.4185 41.4203V44.2101V47H4.69289V41.4203M4.69289 41.4203C-2.75563 31.0694 6.67009 12.4454 15.695 3M4.69289 41.4203H20M15.695 3L16 17C15.4228 17 12.9619 17 12 17L12 25.3724M20 41.4203L20 26M12 25.3724C8.2124 25.3724 8.2124 30.155 12 30.155C15.7876 30.155 15.7876 25.3724 12 25.3724Z" stroke="white" stroke-width="4"/>
</svg>
